<?xml version="1.0" standalone="no"?>
<!DOCTYPE svg PUBLIC "-//W3C//DTD SVG 20010904//EN"
 "http://www.w3.org/TR/2001/REC-SVG-20010904/DTD/svg10.dtd">
<svg version="1.0" xmlns="http://www.w3.org/2000/svg"
 width="80000px" height="80000px" viewBox="10 130 490 490"
 preserveAspectRatio="xMidYMid meet">

<g transform="translate(10.000000,500.000000) scale(0.100000,-0.100000)"
fill="#000000" stroke="none">
<path d="M1741 2841 c-23 -92 11 -269 57 -298 21 -12 38 2 121 101 l33 39 -64
33 c-69 35 -115 88 -127 145 -6 31 -7 31 -20 -20z"/>
<path d="M1276 2725 c-49 -17 -104 -61 -138 -111 -31 -45 -58 -143 -58 -206
l1 -43 13 30 c21 45 78 84 151 102 60 15 68 15 110 -1 60 -23 131 -94 162
-162 14 -30 26 -54 28 -52 2 2 -1 23 -5 48 -19 94 -10 97 31 11 22 -46 42 -96
46 -110 3 -14 14 -45 24 -69 31 -71 81 -435 78 -567 l-1 -40 -10 30 c-18 56
-37 150 -38 190 -1 22 -8 58 -15 80 l-14 40 5 -56 c12 -122 14 -150 19 -319 4
-96 9 -186 12 -200 5 -22 7 -20 19 20 8 25 16 60 19 78 9 69 102 151 181 160
88 10 245 -36 320 -93 18 -14 35 -25 38 -25 3 0 25 -14 50 -30 60 -41 122
-113 137 -158 13 -43 29 -64 29 -40 0 44 67 62 123 34 34 -18 34 -12 -1 40
-15 23 -45 68 -66 100 -57 86 -122 220 -182 374 -20 52 -42 106 -49 120 -32
65 -31 67 37 74 63 8 150 47 179 83 13 15 12 15 -18 0 -65 -34 -166 -13 -234
49 -44 39 -62 72 -89 164 -12 41 -31 104 -41 140 -21 71 -24 135 -9 174 8 21
16 26 45 26 53 0 129 -33 180 -78 57 -50 114 -61 273 -54 l114 5 -51 27 c-28
16 -63 43 -78 61 -134 159 -239 181 -461 97 -59 -23 -99 -64 -107 -111 -11
-68 -36 -402 -45 -607 -8 -181 -7 -219 5 -244 16 -32 19 -50 8 -43 -17 11
-113 -13 -173 -42 -35 -17 -65 -29 -68 -27 -2 2 32 40 75 83 l79 79 12 140 c6
77 18 180 26 229 8 50 19 176 25 280 6 105 13 201 16 215 3 14 -9 -2 -27 -34
-52 -92 -54 -96 -73 -109 -23 -17 -33 -73 -45 -242 -15 -212 -37 -400 -59
-501 -16 -77 -35 -134 -44 -134 -1 0 -3 123 -3 273 -2 328 -19 466 -74 592
-10 22 -30 66 -44 98 -30 68 -54 101 -98 134 -33 24 -54 30 -43 13 3 -5 1 -10
-4 -10 -6 0 -11 6 -11 14 0 8 -7 17 -16 20 -28 11 -138 5 -178 -9z m857 -522
c6 -31 6 -31 -40 -35 l-46 -3 7 109 c4 61 10 114 13 119 5 9 54 -131 66 -190z
m68 -181 c3 -4 16 -45 29 -92 20 -74 79 -277 97 -334 5 -17 1 -16 -26 6 -20
17 -57 32 -106 43 -130 29 -155 66 -155 229 0 113 9 151 37 159 22 7 116 -2
124 -11z"/>
<path d="M1551 2254 c0 -11 3 -14 6 -6 3 7 2 16 -1 19 -3 4 -6 -2 -5 -13z"/>
<path d="M1591 2104 c0 -11 3 -14 6 -6 3 7 2 16 -1 19 -3 4 -6 -2 -5 -13z"/>
<path d="M1622 1975 c0 -11 4 -33 8 -50 7 -27 8 -27 8 -5 0 14 -4 36 -8 50 -6
20 -8 21 -8 5z"/>
</g>
</svg>
